<?xml version="1.0" encoding="utf-8"?>
<!-- Generator: Adobe Illustrator 23.1.0, SVG Export Plug-In . SVG Version: 6.00 Build 0)  -->
<svg version="1.1" id="Layer_1" xmlns="http://www.w3.org/2000/svg" xmlns:xlink="http://www.w3.org/1999/xlink" x="0px" y="0px"
	 viewBox="0 0 100 100" style="enable-background:new 0 0 100 100;" xml:space="preserve">
<g>
	<path d="M87.5,38.5h1v-1c0-6.3,5.2-11.5,11.5-11.5v-2c-6.3,0-11.5-5.2-11.5-11.5v-1h-1C81.2,11.5,76,6.3,76,0h-2
		c0,6.3-5.2,11.5-11.5,11.5h-1v1C61.5,18.8,56.3,24,50,24s-11.5-5.2-11.5-11.5v-1h-1C31.2,11.5,26,6.3,26,0h-2
		c0,6.3-5.2,11.5-11.5,11.5h-1v1C11.5,18.8,6.3,24,0,24v2c6.3,0,11.5,5.2,11.5,11.5v1h1C18.8,38.5,24,43.7,24,50
		s-5.2,11.5-11.5,11.5h-1v1C11.5,68.8,6.3,74,0,74v2c6.3,0,11.5,5.2,11.5,11.5v1h1c6.3,0,11.5,5.2,11.5,11.5h2
		c0-6.3,5.2-11.5,11.5-11.5h1v-1C38.5,81.2,43.7,76,50,76s11.5,5.2,11.5,11.5v1h1c6.3,0,11.5,5.2,11.5,11.5h2
		c0-6.3,5.2-11.5,11.5-11.5h1v-1c0-6.3,5.2-11.5,11.5-11.5v-2c-6.3,0-11.5-5.2-11.5-11.5v-1h-1C81.2,61.5,76,56.3,76,50
		S81.2,38.5,87.5,38.5L87.5,38.5z M13.5,36.5c-0.4-5.3-3.7-9.6-8.4-11.5c4.7-1.9,8-6.3,8.4-11.5c5.2-0.4,9.6-3.8,11.5-8.4
		c1.9,4.7,6.3,8,11.5,8.4c0.4,5.2,3.8,9.6,8.4,11.5c-4.7,1.9-8,6.3-8.4,11.5c-5.3,0.4-9.6,3.7-11.5,8.4
		C23.1,40.3,18.7,36.9,13.5,36.5z M36.5,86.5c-5.3,0.4-9.6,3.7-11.5,8.4c-1.9-4.7-6.3-8-11.5-8.4c-0.4-5.3-3.7-9.6-8.4-11.5
		c4.7-1.9,8-6.3,8.4-11.5c5.2-0.4,9.6-3.8,11.5-8.4c1.9,4.7,6.3,8,11.5,8.4c0.4,5.2,3.8,9.6,8.4,11.5C40.3,76.9,36.9,81.3,36.5,86.5
		L36.5,86.5z M86.5,63.5c0.4,5.2,3.8,9.6,8.4,11.5c-4.7,1.9-8,6.3-8.4,11.5c-5.3,0.4-9.6,3.7-11.5,8.4c-1.9-4.7-6.3-8-11.5-8.4
		c-0.4-5.3-3.7-9.6-8.4-11.5c4.7-1.9,8-6.3,8.4-11.5c5.2-0.4,9.6-3.8,11.5-8.4C76.9,59.8,81.3,63.1,86.5,63.5z M62.5,61.5h-1v1
		C61.5,68.8,56.3,74,50,74s-11.5-5.2-11.5-11.5v-1h-1C31.2,61.5,26,56.3,26,50s5.2-11.5,11.5-11.5h1v-1C38.5,31.2,43.7,26,50,26
		s11.5,5.2,11.5,11.5v1h1C68.8,38.5,74,43.7,74,50S68.8,61.5,62.5,61.5z M75,44.9c-1.9-4.7-6.3-8-11.5-8.4
		c-0.4-5.3-3.7-9.6-8.4-11.5c4.7-1.9,8-6.3,8.4-11.5c5.2-0.4,9.6-3.8,11.5-8.4c1.9,4.7,6.3,8,11.5,8.4c0.4,5.2,3.8,9.6,8.4,11.5
		c-4.7,1.9-8,6.3-8.4,11.5C81.3,36.9,76.9,40.3,75,44.9L75,44.9z"/>
</g>
</svg>
